<?xml version="1.0" encoding="UTF-8"?>
<svg id="Layer_2" xmlns="http://www.w3.org/2000/svg" viewBox="0 0 274.01 168.77">
  <defs>
    <style>
      .cls-1 {
        fill: #fbae47;
      }

      .cls-2 {
        fill: #1f120a;
      }
    </style>
  </defs>
  <g id="Layer_4">
    <g>
      <ellipse class="cls-1" cx="162.61" cy="84.39" rx="86.98" ry="84.39"/>
      <g>
        <path class="cls-2" d="M36.96,4.27c3.43.31,7.8.7,12.63.7,2.57,0,4.99-.16,7.64-.39.39-.08.62.16.55.55l-.31,1.95c-.08.47-.55.94-1.09.94-3.43,0-4.76,3.04-5.54,6.78-1.01,4.84-2.65,13.8-3.28,17.31-.31,1.64.23,2.5,2.03,2.5h25.27c1.56,0,2.34-.7,2.57-2.18.62-3.35,2.18-12.4,2.88-17.39v.08c.16-1.01.23-2.03.23-2.89,0-2.57-.78-4.21-3.59-4.21-.23,0-.55-.08-.47-.62l.31-1.87c.08-.47.31-.94,1.01-.94,2.81.31,5.85.39,8.81.39s6.08-.08,9.12-.39c.31,0,.47.23.39.7l-.31,1.79c-.16.47-.55.94-1.09.94-3.59,0-4.76,2.81-5.54,6.78l-.78,3.9c-1.01,4.99-2.26,11.78-2.96,15.83-.23,1.25-.39,2.73-.7,4.29-.86,4.83-1.95,11.31-2.5,15.05-.16,1.01-.31,1.87-.31,2.89,0,2.5.86,4.13,3.66,4.13.47,0,.62.23.55.7-.08.62-.31,1.25-.39,1.87-.08.55-.47.78-.94.86-2.88-.23-6-.39-8.89-.39s-6.08.16-9.05.39c-.23,0-.55-.16-.47-.62.08-.62.31-1.33.39-1.95.08-.62.39-.86,1.01-.86,3.51,0,4.76-2.81,5.54-6.78l2.42-12.71c.31-1.64-.23-2.5-2.03-2.5h-25.19c-1.56,0-2.34.7-2.57,2.26-.08.7-.31,1.4-.39,2.11-.55,3.04-1.33,8.03-1.72,10.61-.16,1.01-.31,1.95-.31,2.89,0,2.5.86,4.13,3.67,4.13.47,0,.62.23.55.7-.08.62-.31,1.25-.39,1.87-.08.55-.47.78-.94.86-2.88-.23-6-.39-8.89-.39s-6.08.16-9.05.39c-.23,0-.55-.16-.47-.62.08-.62.31-1.33.39-1.95.08-.62.39-.86,1.01-.86,3.35,0,4.76-3.04,5.54-6.78.94-4.52,2.73-14.04,3.66-19.26.94-5.22,2.57-14.58,3.28-19.81v.08c.62-3.82-1.79-7.88-10.61-7.88-11.54,0-23.55,9.44-23.55,21.6,0,6.55,4.29,11.78,9.9,11.78,5.22,0,7.8-3.67,7.8-6.94,0-.86-.23-1.79-.78-2.5.94-.86,2.11-1.33,3.12-1.33,2.65,0,4.29,2.11,3.74,5.3-.86,5.07-7.64,8.03-14.19,8.03-8.66,0-17.39-6.08-17.39-15.75C0,12.7,16.38,3.88,31.66,3.88c1.25,0,3.04.16,5.3.39Z"/>
        <path class="cls-2" d="M122.73,15.97c11.46,0,20.35,7.33,20.35,20.9,0,14.58-11.23,28.77-27.76,28.77-12.01,0-20.67-7.41-20.67-20.9,0-14.74,11.39-28.77,28.07-28.77ZM103.86,46.62c0,8.42,3.35,15.44,11.62,15.44,12.17,0,18.33-16.3,18.33-27.29,0-8.5-3.43-15.36-11.46-15.36-12.24,0-18.48,16.38-18.48,27.22Z"/>
        <path class="cls-2" d="M164.45,65.65c-9.51,0-16.14-3.67-16.14-13.02,0-1.4.16-3.04.47-4.83.23-1.4.47-2.89.78-4.37,1.01-5.22,2.1-11,2.88-16.22v.08c.16-.94.23-1.95.23-2.81,0-2.57-.78-4.29-3.59-4.29-.23,0-.63-.08-.55-.62.08-.62.31-1.33.39-1.95.08-.55.47-.78.94-.86,2.65.31,5.69.39,8.58.39s6-.08,9.05-.39c.31,0,.55.23.47.7-.08.62-.31,1.25-.39,1.87-.08.62-.39.86-1.01.86-3.43,0-4.68,3.12-5.54,6.78-.55,2.5-1.64,8.81-2.65,14.43l-1.09,5.93c-.23,1.48-.47,3.2-.47,4.91,0,4.76,1.71,9.12,8.89,9.12,9.82,0,13.49-8.27,15.13-15.99,1.25-6.24,2.57-14.27,3.04-18.09.16-.78.23-1.79.23-2.5,0-2.81-1.17-4.6-5.46-4.6-.23,0-.63-.08-.55-.62.08-.62.31-1.33.39-1.95.08-.55.47-.78.94-.86,2.65.31,5.69.39,8.58.39s6-.08,9.05-.39c.31,0,.55.23.47.7-.08.62-.31,1.25-.39,1.87-.08.62-.39.86-1.01.86-4.37,0-6.55,2.96-7.41,6.78-.78,3.35-1.4,7.02-2.03,10.76-.63,3.9-1.33,7.88-2.26,11.93-1.33,6-6.71,15.99-19.96,15.99Z"/>
        <path class="cls-2" d="M223.94,18.31l2.73-1.79c.94-.55,1.71-.16,2.03.94.94,3.12,1.87,6.78,2.81,9.98v.23c0,.7-1.17,1.25-2.18,1.25-.86,0-1.64-.31-2.03-1.01-2.57-4.29-5.85-7.72-11.54-7.72-3.04,0-7.1,1.79-7.1,5.93,0,3.59,3.59,6.39,7.72,9.51,5.23,3.9,11.39,8.34,11.39,15.6,0,9.36-8.42,14.58-18.25,14.58-7.49,0-17-2.89-17-10.45,0-4.52,3.43-6.86,6.47-6.86,1.56,0,3.04.39,4.06,1.87-1.79.78-2.81,2.57-2.81,4.52,0,3.59,2.96,7.17,9.36,7.17,5.54,0,8.89-3.43,8.89-7.88,0-4.68-4.29-8.19-8.73-11.46-4.91-3.59-10.29-7.88-10.29-13.8,0-8.42,8.66-12.79,15.91-12.79,2.11,0,5.61.47,8.58,2.18Z"/>
        <path class="cls-2" d="M229.79,63.7l.47-2.11c.16-.55.39-.7,1.01-.7,3.35,0,4.68-3.43,5.54-7.02,1.25-5.61,3.82-20.9,4.6-26.44.16-.94.23-1.95.23-2.81,0-2.57-.78-4.29-3.59-4.29-.23,0-.62-.08-.55-.62l.39-2.11c.08-.55.55-.78,1.01-.86,5.07.23,9.9.31,14.82.31s9.75-.08,14.89-.31c.78-.08,1.25.23,1.48.86l3.9,12.16c.08.62-.47.94-1.25.94s-1.56-.16-2.03-1.01c-2.5-4.52-6.71-9.36-13.26-9.36h-1.95c-3.43,0-4.68,3.12-5.54,6.78-.55,2.5-1.48,7.1-1.79,9.12-.31,1.64.23,2.5,2.03,2.5h4.6c1.79,0,3.59-1.48,3.98-3.04l.31-1.25c.16-.55.47-.94,1.01-.94h2.89c.23,0,.55.16.55.55-1.09,3.9-2.18,9.59-2.34,13.33-.16.55-.55.78-1.01.78h-2.89c-.47,0-.62-.16-.55-.62l.23-1.4c.31-1.87-.78-3.67-3.28-3.67h-4.37c-1.56,0-2.34.7-2.57,2.18-.23,1.09-1.17,6.94-1.4,8.89-.55,3.98.08,7.1,6.55,7.1h2.42c6.16,0,12.24-6.55,14.97-11.38.39-.7,1.09-1.33,2.42-1.33.94,0,1.01.47.86.78l-6,14.66c-.31.62-.86.94-1.56.94-6.08-.23-12.01-.39-17.94-.39-5.46,0-11,.16-16.77.39-.23,0-.7-.08-.55-.62Z"/>
      </g>
      <g>
        <path class="cls-2" d="M49.02,78.51c5.88,0,10.43,3.76,10.43,10.71,0,7.47-5.76,14.75-14.23,14.75-6.16,0-10.59-3.8-10.59-10.71,0-7.55,5.84-14.75,14.39-14.75ZM39.35,94.22c0,4.32,1.72,7.91,5.96,7.91,6.24,0,9.39-8.35,9.39-13.99,0-4.36-1.76-7.87-5.88-7.87-6.28,0-9.47,8.39-9.47,13.95Z"/>
        <path class="cls-2" d="M63.93,90.66c.4-2.24.92-5.16,1.08-6.27.08-.48.12-1.08.12-1.48,0-1.32-.4-2.16-1.84-2.16-.12,0-.32-.04-.28-.32l.2-1.08c.04-.28.28-.4.52-.44,2.6.12,5.24.16,7.83.16s5.2-.04,7.83-.16c.4-.04.64.12.8.48l-.04-.04,1.88,6.32c.08.28-.36.48-.76.48s-.76-.16-.92-.52c-1.08-2.4-3.6-4.88-6.67-4.88h-1.44c-1.84,0-2.4,1.44-2.84,3.48,0,.08-.08.28-.08.36-.32,1.44-.88,4.04-1.04,5-.16.84.12,1.28,1.04,1.28h2.52c.88,0,1.84-.76,2.04-1.56l.16-.6c.08-.28.24-.48.52-.48h1.44c.12,0,.28.08.28.28-.56,2.04-1.16,4.68-1.24,6.75-.08.32-.2.44-.52.44h-1.44c-.24,0-.32-.08-.28-.32l.16-.72c.16-.96-.44-1.88-1.68-1.88h-2.4c-.44,0-1.2.2-1.32.96l-.68,4.2c-.28,2.04,0,3.6,2.16,3.6h.8c.24,0,.36.12.32.36l-.2.96c-.04.28-.24.4-.48.44-1.68-.12-3.4-.2-5.12-.2s-3.56.08-5.2.2c-.12,0-.28-.08-.24-.32.04-.32.16-.68.2-1,.04-.32.2-.44.52-.44,1.8,0,2.4-1.44,2.84-3.48l1.12-5.48.32-1.92Z"/>
      </g>
      <g>
        <path class="cls-2" d="M7.77,113.56c.32,0,.68,0,1.08.04,2.28.12,5.12.28,7.39.28,2.56,0,5.72-.16,8.79-.32.32-.04.6.2.72.44l1.72,6.23c.04.32-.48.52-1,.52-.48,0-.84-.16-1.04-.56-1.24-2.48-2.48-4.92-4.72-4.76-1.56.12-2.2,1.64-2.6,3.44-.64,2.88-2.04,10.63-2.44,13.71-.08.52-.16.96-.16,1.48,0,1.28.44,2.12,1.88,2.12.24,0,.32.12.28.36-.04.32-.16.64-.2.96-.04.28-.24.4-.48.44-1.44-.12-3-.2-4.48-.2s-3.08.08-4.56.2c-.12,0-.28-.08-.24-.32.04-.32.16-.68.2-1,.04-.32.2-.44.52-.44,1.72,0,2.44-1.56,2.84-3.48.68-3,2.04-10.87,2.44-13.71v.04c.08-.52.12-.96.12-1.4,0-1.4-.48-2.2-2.04-2.2-2.08,0-4.24,2.44-5.28,4.72-.2.44-.76.56-1.2.56-.52,0-.96-.16-.88-.48l2.52-6.2c.16-.36.4-.52.76-.48h.04Z"/>
        <path class="cls-2" d="M40.42,137.62c.04-.32.16-.68.2-1,.04-.32.2-.44.52-.44,1.8,0,2.4-1.44,2.84-3.48l.72-3.68c.16-.84-.12-1.28-1.04-1.28h-9.15c-.8,0-1.2.36-1.32,1.12-.16.84-.48,2.72-.6,3.68-.08.48-.12,1.08-.12,1.52,0,1.28.4,2.12,1.84,2.12.24,0,.32.12.28.36-.04.32-.16.64-.2.96-.04.28-.24.4-.48.44-1.44-.12-3-.2-4.48-.2s-3.08.08-4.56.2c-.12,0-.28-.08-.24-.32.04-.32.16-.68.2-1,.04-.32.2-.44.52-.44,1.72,0,2.4-1.6,2.84-3.48.64-2.88,2.04-10.91,2.44-13.79v.04c.08-.48.12-1,.12-1.44,0-1.32-.4-2.2-1.84-2.2-.12,0-.32-.04-.28-.32.04-.32.16-.68.2-1,.04-.28.24-.4.48-.44,1.36.16,2.92.2,4.4.2s3.08-.04,4.64-.2c.16,0,.28.12.24.36-.04.32-.16.64-.2.96-.04.32-.2.44-.52.44-1.76,0-2.4,1.6-2.84,3.48-.32,1.36-.72,3.52-1.04,5.32-.16.84.12,1.28,1.04,1.28h9.19c.8,0,1.2-.36,1.32-1.12.32-1.8.68-3.92.88-5.32.08-.44.12-1.04.12-1.44,0-1.32-.4-2.2-1.84-2.2-.12,0-.32-.04-.28-.32.04-.32.16-.68.2-1,.04-.28.24-.4.48-.44,1.36.16,2.92.2,4.4.2s3.08-.04,4.64-.2c.16,0,.28.12.24.36-.04.32-.16.64-.2.96-.04.32-.2.44-.52.44-1.76,0-2.4,1.6-2.84,3.48-.64,2.88-2.04,10.91-2.44,13.79v-.04c-.08.52-.12,1.04-.12,1.52,0,1.28.4,2.12,1.84,2.12.24,0,.32.12.28.36-.04.32-.16.64-.2.96-.04.28-.24.4-.48.44-1.44-.12-3-.2-4.48-.2s-3.04.08-4.56.2c-.12,0-.28-.04-.24-.32Z"/>
        <path class="cls-2" d="M52.97,137.62l.24-1.08c.08-.28.2-.36.52-.36,1.72,0,2.4-1.76,2.84-3.6.64-2.88,1.96-10.71,2.36-13.55.08-.48.12-1,.12-1.44,0-1.32-.4-2.2-1.84-2.2-.12,0-.32-.04-.28-.32l.2-1.08c.04-.28.28-.4.52-.44,2.6.12,5.08.16,7.59.16s5-.04,7.63-.16c.4-.04.64.12.76.44l2,6.23c.04.32-.24.48-.64.48s-.8-.08-1.04-.52c-1.28-2.32-3.44-4.8-6.79-4.8h-1c-1.76,0-2.4,1.6-2.84,3.48-.28,1.28-.76,3.64-.92,4.68-.16.84.12,1.28,1.04,1.28h2.36c.92,0,1.84-.76,2.04-1.56l.16-.64c.08-.28.24-.48.52-.48h1.48c.12,0,.28.08.28.28-.56,2-1.12,4.92-1.2,6.84-.08.28-.28.4-.52.4h-1.48c-.24,0-.32-.08-.28-.32l.12-.72c.16-.96-.4-1.88-1.68-1.88h-2.24c-.8,0-1.2.36-1.32,1.12-.12.56-.6,3.56-.72,4.56-.28,2.04.04,3.64,3.36,3.64h1.24c3.16,0,6.28-3.36,7.67-5.83.2-.36.56-.68,1.24-.68.48,0,.52.24.44.4l-3.08,7.51c-.16.32-.44.48-.8.48-3.12-.12-6.16-.2-9.19-.2-2.8,0-5.64.08-8.59.2-.12,0-.36-.04-.28-.32Z"/>
      </g>
      <g>
        <path class="cls-2" d="M142.26,130.24c0-8.42-6.55-15.05-12.94-21.13-5.54-5.46-12.63-13.18-12.63-20.51,0-10.53,11.31-16.3,18.79-16.3,1.87,0,5.46.39,8.58,2.26l2.88-1.95c.86-.55,1.4.08,1.72.93l3.9,13.88c.23.86-.7,1.72-2.11,1.64-.86-.08-1.56-.55-1.79-1.25-1.72-4.37-5.85-11.78-12.94-11.78-5.07,0-9.67,3.82-9.67,8.97,0,6.08,5.15,11.31,10.92,17.23,6.71,6.86,14.11,14.5,14.11,24.49,0,17.94-17.86,28.07-32.28,28.07-13.65,0-27.37-8.5-27.37-21.52,0-11.23,10.06-18.4,19.88-18.4,6.24,0,12.4,3.04,12.71,8.19-.08,3.43-2.18,5.3-4.44,5.3-.86,0-1.95-.47-2.65-1.17.86-.86,1.01-1.95,1.01-3.28,0-3.2-2.34-6.39-7.02-6.39-6.47,0-12.17,6.16-12.17,15.28,0,12.48,10.45,18.48,20.27,18.48,10.84,0,23.24-8.42,23.24-21.05Z"/>
        <path class="cls-2" d="M176.33,133.28c-9.51,0-16.14-3.66-16.14-13.02,0-1.4.16-3.04.47-4.84.23-1.4.47-2.88.78-4.37,1.01-5.23,2.11-11,2.88-16.22v.08c.16-.94.23-1.95.23-2.81,0-2.57-.78-4.29-3.59-4.29-.23,0-.62-.08-.55-.62.08-.63.31-1.33.39-1.95.08-.55.47-.78.94-.86,2.65.31,5.69.39,8.58.39s6-.08,9.04-.39c.31,0,.55.23.47.7-.08.62-.31,1.25-.39,1.87-.08.63-.39.86-1.01.86-3.43,0-4.68,3.12-5.54,6.79-.55,2.5-1.64,8.81-2.65,14.43l-1.09,5.93c-.23,1.48-.47,3.2-.47,4.91,0,4.76,1.71,9.12,8.89,9.12,9.83,0,13.49-8.27,15.13-15.99,1.25-6.24,2.57-14.27,3.04-18.09.16-.78.23-1.79.23-2.5,0-2.81-1.17-4.6-5.46-4.6-.23,0-.62-.08-.55-.62.08-.63.31-1.33.39-1.95.08-.55.47-.78.94-.86,2.65.31,5.69.39,8.58.39s6-.08,9.05-.39c.31,0,.55.23.47.7-.08.62-.31,1.25-.39,1.87-.08.63-.39.86-1.01.86-4.37,0-6.55,2.96-7.41,6.79-.78,3.35-1.4,7.02-2.03,10.76-.62,3.9-1.33,7.88-2.26,11.93-1.32,6-6.71,15.99-19.96,15.99Z"/>
        <path class="cls-2" d="M240.27,131.64h-1.56c-.7,0-1.09-.16-1.4-.78-.39-1.48-9.12-27.53-14.74-40.08-1.95,8.42-4.6,25.03-5.38,30.72-.08.86-.23,2.81-.23,2.57,0,2.65,1.09,4.45,5.46,4.45.47,0,.62.23.55.7-.08.62-.31,1.25-.39,1.87-.08.55-.47.78-.94.86-2.81-.23-5.85-.39-8.73-.39s-6,.16-8.89.39c-.23,0-.55-.16-.47-.62.08-.62.31-1.32.39-1.95.08-.62.39-.86,1.01-.86,4.37,0,6.55-2.81,7.41-6.79,1.25-5.54,3.9-21.21,4.68-26.9.08-.78.16-1.56.16-2.34,0-2.81-1.01-4.68-5.38-4.68-.23,0-.62-.08-.55-.62.08-.63.31-1.33.39-1.95.08-.55.47-.78.94-.86,1.4.16,4.99.39,8.73.39,2.5,0,5.23-.08,7.41-.39.94,0,1.4.23,1.64.86l12.17,33.3c1.17-6.24,3.51-19.73,4.05-23.71v.08c.16-.86.23-1.71.23-2.5,0-2.81-1.17-4.6-5.46-4.6-.23,0-.62-.08-.55-.62.08-.63.31-1.33.39-1.95.08-.55.47-.78.94-.86,2.65.31,5.69.39,8.58.39s6-.08,9.05-.39c.31,0,.55.23.47.7-.08.62-.31,1.25-.39,1.87-.08.63-.39.86-1.01.86-4.45,0-6.63,2.81-7.41,6.79-2.42,10.21-4.84,26.05-6.16,36.18-.23.78-.94.78-4.99.86Z"/>
      </g>
    </g>
  </g>
</svg>